<svg width="24" height="24" viewBox="0 0 24 24" fill="none" xmlns="http://www.w3.org/2000/svg">
<path fill-rule="evenodd" clip-rule="evenodd" d="M23.3606 16.9515C23.2189 16.5637 23.0139 16.2102 22.6954 15.9412C22.4532 15.7367 22.205 15.5325 21.9351 15.3686C20.2524 14.3467 18.465 13.547 16.6097 12.8955C16.576 12.8837 16.5162 12.9009 16.488 12.9261C16.2694 13.1221 16.065 13.3349 15.8385 13.5211C14.8823 14.3069 13.8252 14.872 12.5625 14.9599C11.8841 15.0071 11.2083 14.9738 10.5468 14.8089C9.78032 14.6178 9.1045 14.2334 8.47996 13.7626C8.14864 13.5129 7.84707 13.2237 7.53282 12.9515C7.47843 12.9043 7.43231 12.8737 7.34985 12.9075C6.36103 13.3138 5.36072 13.6937 4.38267 14.1243C3.39064 14.5609 2.4371 15.0759 1.56793 15.7329C1.16013 16.0412 0.824425 16.4058 0.664678 16.9043C0.514629 17.3726 0.359388 17.8396 0.224571 18.3123C0.133445 18.6318 0.0737633 18.9603 0 19.2847V19.6031C0.0984 19.9736 0.260914 20.3095 0.51529 20.6008C0.871665 21.009 1.30435 21.3185 1.771 21.5831C2.78794 22.1598 3.88722 22.5216 5.01331 22.8107C5.99214 23.0621 6.9839 23.2543 7.98737 23.3642C8.93476 23.468 9.88633 23.5534 10.8383 23.5901C11.7871 23.6267 12.7393 23.6134 13.6888 23.5838C14.6582 23.5537 15.623 23.4487 16.5833 23.3048C17.9949 23.0933 19.3808 22.7802 20.7179 22.2729C21.5241 21.9671 22.2997 21.6005 22.9818 21.0628C23.3631 20.7623 23.7 20.4208 23.8876 19.9604C23.9345 19.8452 23.963 19.7224 24 19.6031V19.2113C23.9872 19.1482 23.9738 19.0853 23.9616 19.0221C23.8243 18.3136 23.6078 17.6278 23.3606 16.9515ZM6.1738 5.78581C6.23084 4.46032 6.69945 3.28248 7.51068 2.24446C8.45574 1.03513 9.70763 0.323038 11.2141 0.0665317C12.2003 -0.101395 13.1555 0.0583766 14.0734 0.435275C15.905 1.18731 17.0525 2.55374 17.6155 4.4314C17.7662 4.93403 17.808 5.45485 17.8332 5.98047C17.7885 8.41378 16.9635 10.5244 15.2055 12.2365C14.65 12.7774 14.0119 13.2113 13.2679 13.4612C12.7495 13.6353 12.2105 13.6274 11.6706 13.6173C10.7041 13.5993 9.92045 13.1533 9.19731 12.5728C8.11663 11.7054 7.36536 10.5923 6.83711 9.32299C6.36647 8.1921 6.12093 7.015 6.1738 5.78581Z" fill="white"/>
<mask id="mask0_1587_494" style="mask-type:alpha" maskUnits="userSpaceOnUse" x="0" y="0" width="24" height="24">
<path fill-rule="evenodd" clip-rule="evenodd" d="M23.3606 16.9515C23.2189 16.5637 23.0139 16.2102 22.6954 15.9412C22.4532 15.7367 22.205 15.5325 21.9351 15.3686C20.2524 14.3467 18.465 13.547 16.6097 12.8955C16.576 12.8837 16.5162 12.9009 16.488 12.9261C16.2694 13.1221 16.065 13.3349 15.8385 13.5211C14.8823 14.3069 13.8252 14.872 12.5625 14.9599C11.8841 15.0071 11.2083 14.9738 10.5468 14.8089C9.78032 14.6178 9.1045 14.2334 8.47996 13.7626C8.14864 13.5129 7.84707 13.2237 7.53282 12.9515C7.47843 12.9043 7.43231 12.8737 7.34985 12.9075C6.36103 13.3138 5.36072 13.6937 4.38267 14.1243C3.39064 14.5609 2.4371 15.0759 1.56793 15.7329C1.16013 16.0412 0.824425 16.4058 0.664678 16.9043C0.514629 17.3726 0.359388 17.8396 0.224571 18.3123C0.133445 18.6318 0.0737633 18.9603 0 19.2847V19.6031C0.0984 19.9736 0.260914 20.3095 0.51529 20.6008C0.871665 21.009 1.30435 21.3185 1.771 21.5831C2.78794 22.1598 3.88722 22.5216 5.01331 22.8107C5.99214 23.0621 6.9839 23.2543 7.98737 23.3642C8.93476 23.468 9.88633 23.5534 10.8383 23.5901C11.7871 23.6267 12.7393 23.6134 13.6888 23.5838C14.6582 23.5537 15.623 23.4487 16.5833 23.3048C17.9949 23.0933 19.3808 22.7802 20.7179 22.2729C21.5241 21.9671 22.2997 21.6005 22.9818 21.0628C23.3631 20.7623 23.7 20.4208 23.8876 19.9604C23.9345 19.8452 23.963 19.7224 24 19.6031V19.2113C23.9872 19.1482 23.9738 19.0853 23.9616 19.0221C23.8243 18.3136 23.6078 17.6278 23.3606 16.9515ZM6.1738 5.78581C6.23084 4.46032 6.69945 3.28248 7.51068 2.24446C8.45574 1.03513 9.70763 0.323038 11.2141 0.0665317C12.2003 -0.101395 13.1555 0.0583766 14.0734 0.435275C15.905 1.18731 17.0525 2.55374 17.6155 4.4314C17.7662 4.93403 17.808 5.45485 17.8332 5.98047C17.7885 8.41378 16.9635 10.5244 15.2055 12.2365C14.65 12.7774 14.0119 13.2113 13.2679 13.4612C12.7495 13.6353 12.2105 13.6274 11.6706 13.6173C10.7041 13.5993 9.92045 13.1533 9.19731 12.5728C8.11663 11.7054 7.36536 10.5923 6.83711 9.32299C6.36647 8.1921 6.12093 7.015 6.1738 5.78581Z" fill="white"/>
</mask>
<g mask="url(#mask0_1587_494)">
</g>
</svg>
