<svg id="Layer_1" xmlns="http://www.w3.org/2000/svg" width="660" height="792" viewBox="24 0 660 792"><style>.st0{fill:#c4c3c3; stroke:#232828; stroke-width:1;}.st1{fill:#e41e30; stroke:#232828; stroke-width:1;}</style><path class="st0" d="M520.8 527.3c94.1-104.5 94.1-261.4 0-366-94-114.9-282.2-125.4-397.3-31.3C8.5 234.5-12.4 412.2 92.1 527.3c52.3 62.8 135.9 94.1 209.1 94.1 52.3 0 104.5-20.9 146.4-41.8l96.7 39.2-23.5-91.5zm-217 11.8c-108.4 0-196.1-87.6-196.1-196.1s87.6-196 196.1-196 196.1 87.6 196.1 196-87.5 196.1-196.1 196.1z"/><path id="XMLID_15_" class="st1" d="M520.8 527.3c-19.6 19.6-48.4 40.5-73.2 52.3l174 205.4 62.8-52.3-163.6-205.4z"/></svg>
