<svg width="24" height="24" viewBox="0 0 24 24" fill="none" xmlns="http://www.w3.org/2000/svg">
<path d="M12.1875 12.5H0.5V11.5H12.1875H13.3946L12.5411 10.6464L10.6134 8.71875L11.3438 7.98836L14.9863 11.6309L15.3393 12L14.9863 12.3691L11.3438 16.0116L10.6134 15.2812L12.5411 13.3536L13.3946 12.5H12.1875ZM12 23.5C6.88447 23.5 2.55432 20.135 1.07101 15.5H2.10887C3.55253 19.5747 7.43544 22.5 12 22.5C17.7918 22.5 22.5 17.7918 22.5 12C22.5 6.20823 17.7918 1.5 12 1.5C7.43543 1.5 3.55253 4.42533 2.10887 8.5H1.07101C2.55432 3.86499 6.88447 0.5 12 0.5C18.341 0.5 23.5 5.65896 23.5 12C23.5 18.341 18.341 23.5 12 23.5Z" fill="white" stroke="white"/>
</svg>
