<svg width="32" height="24" viewBox="0 0 32 24" fill="none" xmlns="http://www.w3.org/2000/svg">
<path fill-rule="evenodd" clip-rule="evenodd" d="M3 23L4 24L28 1L27 0L3 23ZM16 3C17.7054 3 19.3507 3.33798 20.8951 3.88294L18.233 6.42929C17.5428 6.15237 16.7892 6 16 6C12.6863 6 10 8.68629 10 12C10 12.6951 10.1182 13.3625 10.3356 13.9834L6.36193 17.7842C2.50326 15.2703 0 12.1719 0 12C0 11.7085 7.19957 3 16 3ZM16 18C14.936 18 13.9366 17.723 13.0701 17.2373L10.3301 19.8581C12.0945 20.553 14.0062 21 16 21C23.9076 21 30.5227 13.7335 31.7836 12.2591L32 12C32 12 29.2004 8.50026 24.9587 5.86556L21.3624 9.30552C21.7703 10.1157 22 11.031 22 12C22 15.3137 19.3137 18 16 18Z" fill="white"/>
</svg>
